<svg width="241" height="386" viewBox="0 0 241 386" fill="none" xmlns="http://www.w3.org/2000/svg">
<circle cx="120" cy="120" r="100" fill="#96DEF8"/>
<line x1="20.0001" y1="119.479" x2="220" y2="119.502" stroke="white"/>
<line x1="20" y1="110.5" x2="220" y2="110.5" stroke="#A8A8A8"/>
<line x1="20" y1="98.5" x2="220" y2="98.5" stroke="#A8A8A8"/>
<line x1="20" y1="85.5" x2="220" y2="85.5" stroke="#A8A8A8"/>
<line x1="20" y1="73.5" x2="220" y2="73.5" stroke="#A8A8A8"/>
<line x1="20" y1="62.5" x2="220" y2="62.5" stroke="#A8A8A8"/>
<line x1="37" y1="53.5" x2="204" y2="53.5" stroke="#A8A8A8"/>
<line x1="37" y1="45.5" x2="204" y2="45.5" stroke="#A8A8A8"/>
<line x1="45" y1="38.5" x2="195" y2="38.5" stroke="#A8A8A8"/>
<line x1="45" y1="32.5" x2="195" y2="32.5" stroke="#A8A8A8"/>
<line x1="60" y1="27.5" x2="176" y2="27.5" stroke="#A8A8A8"/>
<line x1="60" y1="23.5" x2="176" y2="23.5" stroke="#A8A8A8"/>
<line x1="60" y1="21.5" x2="176" y2="21.5" stroke="#A8A8A8"/>
<path d="M138.603 21.6415L139.621 22.0951C178.074 39.223 207.13 74.9313 218.477 119.002V119.002" stroke="#A8A8A8" stroke-linecap="round"/>
<path d="M21.5598 119.604L21.8739 118.432C33.7169 74.2382 63.1961 38.5994 101.966 21.6047V21.6047" stroke="#A8A8A8" stroke-linecap="round"/>
<path d="M33.7198 119.838L33.949 118.698C42.6908 75.232 69.6425 39.2537 106.654 21.6433V21.6433" stroke="#A8A8A8" stroke-linecap="round"/>
<path d="M49.0031 119.675L49.1256 118.586C53.8579 76.4967 77.246 40.2636 111.722 21.61V21.61" stroke="#A8A8A8" stroke-linecap="round"/>
<path d="M67.959 119.906L67.9938 118.86C69.2928 79.8655 86.5812 44.2509 115.267 21.4763V21.4763" stroke="#A8A8A8" stroke-linecap="round"/>
<path d="M85.977 119.436L85.9633 118.419C85.4784 82.2111 97.5919 47.7053 120.05 21.3203V21.3203" stroke="#A8A8A8" stroke-linecap="round"/>
<path d="M103.256 118.996L103.016 106.611C102.521 81.107 106.814 55.9024 115.668 32.3392L119.621 21.8185" stroke="#A8A8A8" stroke-linecap="round"/>
<path d="M120 21.8181L124.255 33.2786C133.019 56.8789 137.216 82.1031 136.625 107.609L136.361 118.997" stroke="#A8A8A8" stroke-linecap="round"/>
<path d="M206.291 119.932L206.062 118.793C197.324 75.326 170.385 39.3484 133.39 21.7378V21.7378" stroke="#A8A8A8" stroke-linecap="round"/>
<path d="M191.014 119.769L190.892 118.68C186.162 76.5902 162.785 40.3582 128.324 21.7043V21.7043" stroke="#A8A8A8" stroke-linecap="round"/>
<path d="M172.067 120L172.032 118.955C170.733 79.9589 153.454 44.3459 124.78 21.5707V21.5707" stroke="#A8A8A8" stroke-linecap="round"/>
<path d="M154.058 119.53L154.071 118.513C154.556 82.3048 142.449 47.8003 120 21.4148V21.4148" stroke="#A8A8A8" stroke-linecap="round"/>
<line y1="-0.5" x2="97.258" y2="-0.5" transform="matrix(-0.0102819 -0.999947 0.999921 -0.0125575 121 119.378)" stroke="#A8A8A8"/>
<mask id="path-28-inside-1_15_341" fill="white">
<path d="M220 120C220 106.868 217.413 93.8642 212.388 81.7317C207.362 69.5991 199.997 58.5752 190.711 49.2893C181.425 40.0035 170.401 32.6375 158.268 27.612C146.136 22.5866 133.132 20 120 20C106.868 20 93.8642 22.5866 81.7317 27.612C69.5991 32.6375 58.5752 40.0035 49.2893 49.2893C40.0035 58.5752 32.6375 69.5991 27.612 81.7317C22.5866 93.8642 20 106.868 20 120L120 120H220Z"/>
</mask>
<path d="M220 120C220 106.868 217.413 93.8642 212.388 81.7317C207.362 69.5991 199.997 58.5752 190.711 49.2893C181.425 40.0035 170.401 32.6375 158.268 27.612C146.136 22.5866 133.132 20 120 20C106.868 20 93.8642 22.5866 81.7317 27.612C69.5991 32.6375 58.5752 40.0035 49.2893 49.2893C40.0035 58.5752 32.6375 69.5991 27.612 81.7317C22.5866 93.8642 20 106.868 20 120L120 120H220Z" stroke="#A8A8A8" stroke-width="2" mask="url(#path-28-inside-1_15_341)"/>
<line x1="214.646" y1="142.354" x2="191.646" y2="119.354" stroke="#A7A7A7"/>
<line x1="192.354" y1="119.354" x2="169.354" y2="142.354" stroke="#A7A7A7"/>
<line x1="70.6464" y1="142.354" x2="47.6464" y2="119.354" stroke="#A7A7A7"/>
<line x1="48.3536" y1="119.354" x2="25.3536" y2="142.354" stroke="#A7A7A7"/>
<line x1="169.661" y1="142.368" x2="144.661" y2="119.368" stroke="#A7A7A7"/>
<line x1="145.339" y1="119.368" x2="120.339" y2="142.368" stroke="#A7A7A7"/>
<line x1="120.663" y1="142.366" x2="95.6618" y2="119.368" stroke="#A7A7A7"/>
<line x1="95.3405" y1="119.368" x2="70.3388" y2="142.366" stroke="#A7A7A7"/>
<line x1="213.605" y1="142.693" x2="220.605" y2="133.693" stroke="#A7A7A7"/>
<line x1="19.3947" y1="133.693" x2="26.3939" y2="142.694" stroke="#A7A7A7"/>
<circle cx="120" cy="120" r="110" stroke="#EEF6EE" stroke-width="20"/>
<line x1="20.4859" y1="119.882" x2="67.4859" y2="313.882" stroke="#A8A8A8"/>
<line x1="67.4956" y1="119.934" x2="93.4956" y2="313.934" stroke="#A8A8A8"/>
<line x1="146.504" y1="313.935" x2="172.493" y2="119.934" stroke="#A8A8A8"/>
<line x1="172.514" y1="313.881" x2="219.519" y2="119.882" stroke="#A8A8A8"/>
<line x1="120.5" y1="120" x2="120.5" y2="314" stroke="#A8A8A8"/>
<line x1="20" y1="119.5" x2="220" y2="119.5" stroke="black"/>
<rect x="66.5" y="313.5" width="107" height="14" fill="#E7D79C" stroke="#DFCC8B"/>
<mask id="path-47-outside-2_15_341" maskUnits="userSpaceOnUse" x="71" y="327" width="97" height="59" fill="black">
<rect fill="white" x="71" y="327" width="97" height="59"/>
<path d="M72 328H167V385H72V328Z"/>
</mask>
<path d="M72 328H167V385H72V328Z" fill="#E7D79C"/>
<path d="M72 328V327H71V328H72ZM167 328H168V327H167V328ZM167 385V386H168V385H167ZM72 385H71V386H72V385ZM72 329H167V327H72V329ZM166 328V385H168V328H166ZM167 384H72V386H167V384ZM73 385V328H71V385H73Z" fill="#DFCC8B" mask="url(#path-47-outside-2_15_341)"/>
</svg>
