<svg width="50" height="50" viewBox="0 0 50 50" fill="none" xmlns="http://www.w3.org/2000/svg">
<circle cx="25" cy="25" r="25" fill="#96DEF8"/>
<path d="M39.7781 6.39722C39.7781 7.55817 38.2573 9.25858 39.6021 10.2298C40.1598 10.6326 40.3378 11.3442 41.01 11.755C41.8964 12.2967 42.6167 12.9273 43.1121 13.8767C43.8978 15.3827 42.9459 16.5123 42.9459 18.0124C42.9459 19.2459 44.4983 20.8046 45.4879 21.4343C46.8281 22.2872 49.2814 22.8978 49.2814 20.6522C49.2814 20.2709 49.2814 19.8896 49.2814 19.5083C49.2814 18.9047 48.5775 18.8369 48.5775 18.1981C48.5775 16.8534 47.7535 15.7584 47.2087 14.6686C46.8207 13.8927 46.524 13.2231 46.0745 12.459C45.5478 11.5636 44.5413 10.9589 44.0018 10.0147C43.6022 9.31542 42.7628 8.75614 42.2028 8.1962C41.912 7.90536 41.4748 7.82859 41.3718 7.36515C41.3024 7.05316 40.9659 6.41677 40.57 6.41677C39.9702 6.41677 39.2501 8.35895 39.2501 8.86104C39.2501 9.25436 39.279 9.49824 39.6999 9.57476C40.2421 9.67334 40.999 10.0624 40.3256 9.389C40.109 9.1724 40.0735 8.88523 39.9541 8.61661C39.8429 8.36643 40.118 9.40297 40.1692 9.52588C40.2596 9.74281 40.4782 10.6938 40.7363 10.7676C40.8927 10.8122 40.834 9.55442 40.834 9.46721C40.834 9.17445 40.9152 8.69966 40.6971 8.4504C40.2513 7.94088 41.1885 9.71686 41.5184 10.308C41.7622 10.7448 42.0124 11.1808 42.281 11.5986C42.6249 12.1336 42.0147 10.3548 41.8899 9.73119C41.761 9.08629 41.538 8.40798 41.538 7.74645C41.538 6.81684 42.1821 9.49241 42.4375 10.3863C43.0862 12.6568 41.1194 10.4635 40.6678 9.74097C39.8248 8.39221 40.3922 8.31294 41.1469 9.52588C41.4184 9.96226 41.8546 10.307 42.0562 10.7773C42.2789 11.2971 42.2419 9.78621 42.2419 9.68231C42.2419 7.70927 43.5331 10.5537 43.8454 11.1782C44.3935 12.2745 45.0053 13.1922 45.2239 14.3949C45.2949 14.7853 45.0252 14.4027 44.9502 14.2873C44.4522 13.5211 43.952 12.7552 43.552 11.931C42.9669 10.7252 44.0884 12.2987 44.2462 12.635C44.796 13.8063 45.2226 15.036 45.7617 16.2134C45.8283 16.3589 46.5754 17.6712 46.2114 16.8978C45.8849 16.204 45.2533 15.1385 45.2533 14.346C45.2533 14.096 46.3837 15.6113 46.4558 15.7343C47.0002 16.6629 47.6921 17.6836 48.069 18.6968C48.55 19.9892 46.5075 16.3236 46.2896 14.9619C46.1181 13.8902 46.6784 15.4499 46.7785 15.7245C47.1396 16.7156 47.7953 18.1732 47.6682 19.254C47.6045 19.7956 45.665 15.7648 46.5047 17.4648C46.8947 18.2543 47.3935 19.3726 47.4922 20.2611C47.556 20.8354 46.6815 19.4989 46.6416 19.4203C46.2122 18.5737 45.7617 15.7628 45.7617 16.712C45.7617 17.1841 45.8107 17.6096 45.5075 16.8782C45.0509 15.777 44.5417 14.6876 44.1191 13.5736C44.0319 13.3436 43.4432 11.8972 43.6889 12.7328C43.9435 13.5984 44.1778 14.5242 44.1778 15.441C44.1778 16.6365 43.657 18.272 44.0409 19.3812C44.1654 19.7409 44.8473 20.2109 45.1457 20.4762C45.3942 20.697 45.3377 21.1505 45.7226 21.1801C45.9961 21.2012 46.279 21.1801 46.5536 21.1801C46.9031 21.1801 47.2916 21.2585 47.5606 21.0433C48.0332 20.6652 48.3451 21.3886 47.5606 20.6913C47.0697 20.2549 46.4655 19.9356 45.8594 19.7625C45.6457 19.7014 45.4431 18.8741 45.1359 18.7065C44.8356 18.5427 43.9331 17.8063 44.7448 17.8364C45.7242 17.8726 46.5854 19.2917 47.1305 19.9482C47.5236 20.4218 48.4811 21.4658 48.2157 20.1829C47.9057 18.6844 47.3803 17.1826 47.1793 15.6756C47.1204 15.2333 46.9407 13.5774 46.6416 13.2607C46.3291 12.9298 45.786 13.1596 45.4097 12.9087" stroke="#9EF896" stroke-linecap="round"/>
<path d="M42.2407 28.0436C41.0136 27.0998 38.2221 26.6206 36.6873 27.0268C35.2453 27.4085 35.8473 29.1791 35.1621 29.9404C34.5654 30.6034 33.623 30.8708 32.9916 31.4852C31.5086 32.928 31.6815 34.2973 31.6815 36.2173C31.6815 37.4004 31.8839 38.9508 30.8895 39.8348C30.3475 40.3166 30.0865 41.3984 29.7456 42.0444C29.514 42.4833 29.3975 42.9165 29.1785 43.3545C28.817 44.0777 29.114 44.7565 29.6478 45.2904C30.6357 46.2782 33.1065 45.4664 34.2919 45.4664C35.1512 45.4664 36.1048 43.8456 36.5113 43.0905C37.0711 42.051 37.9048 41.0686 38.3592 39.9325C38.644 39.2206 38.614 37.5469 39.6204 37.5469C40.7193 37.5469 43.654 38.9818 44.4308 37.8598C45.149 36.8224 45.3729 35.8983 45.4085 34.6529C45.4234 34.1314 45.9094 32.0913 46.5524 32.0913C47.5527 32.0913 45.9798 29.7047 45.5747 29.4515C44.7626 28.944 43.8677 28.5826 43.0424 28.0827C42.3624 27.6709 41.4715 27.1637 40.6568 27.1637" stroke="#9EF896" stroke-linecap="round"/>
<path d="M38.8972 30.1555C37.4502 30.0108 36.2575 28.9473 37.3524 27.7308C37.6114 27.443 38.1305 27.4812 38.3692 27.7797C38.8394 28.3674 39.8637 27.6716 40.2171 28.3077C40.712 29.1985 42.6596 28.7517 43.4337 29.3147C44.1688 29.8493 45.4087 29.4692 45.4087 30.7715C45.4087 31.381 45.091 31.7192 45.0567 32.2674C45.0563 32.2737 44.493 31.242 44.1768 31.0746C43.7461 30.8465 43.5286 30.3315 43.0329 30.3315C42.4471 30.3315 41.8365 30.1145 41.273 29.9893C40.1061 29.73 39.4245 29.2032 38.1932 29.2756C37.8043 29.2985 37.0301 29.6434 36.7071 29.0898C36.4112 28.5825 36.6094 27.9497 36.6094 29.0116C36.6094 29.4969 36.6347 29.9592 36.2183 30.2924C36.0979 30.3887 35.1877 30.8392 35.0255 30.8595C34.771 30.8913 34.7911 31.1916 34.6344 31.3483C34.4567 31.526 34.1076 31.4789 33.9696 31.6514C33.6552 32.0443 32.9336 32.2665 32.7376 32.7073C32.503 33.2354 32.3857 33.3508 32.3857 34.0272C32.3857 34.6112 32.0616 34.9331 32.0337 35.4351C32.0012 36.0197 31.6817 36.4903 31.6817 37.0972C31.6817 37.8453 31.8776 37.5076 32.2879 37.0972C33.0038 36.3813 32.0806 34.9576 32.6008 34.2423C32.8894 33.8455 32.9556 33.1137 33.3536 32.7953C33.894 32.363 34.3021 31.733 34.7713 31.2212C35.2485 30.7006 35.8942 30.2918 36.6094 30.3315C37.4301 30.3771 36.7744 32.0731 36.6485 32.4825C36.4413 33.1557 36.1552 33.9162 35.4654 34.2228C34.8431 34.4994 34.2934 34.5381 33.6176 34.7312C32.8616 34.9472 33.4426 36.0952 33.7545 34.6921C34.0082 33.5501 34.1765 32.9211 34.7713 31.9545C35.22 31.2252 35.3774 31.3868 35.3774 32.2576C35.3774 32.9876 35.3774 33.7176 35.3774 34.4476C35.3774 35.0588 35.2874 33.1868 35.5143 32.6193C35.5297 32.5809 34.998 33.0621 35.2112 33.3819C35.2352 33.4179 35.4667 32.9853 35.4752 32.9713C35.706 32.5937 36.0536 32.2709 36.3943 31.9936C37.2049 31.3338 37.4893 31.4742 37.4893 32.4433C37.4893 32.5189 37.3802 33.4997 37.2742 33.3819C36.8767 32.9403 37.1698 31.7333 37.3133 31.231C37.4312 30.8183 37.8217 31.1808 37.8217 31.4656C37.8217 32.0731 37.1396 32.3686 36.7267 32.6193C35.8091 33.1764 37.142 30.7454 37.9781 30.6835C39.9333 30.5386 38.3692 35.3288 38.3692 31.3972C38.3692 30.9748 38.2029 30.1813 38.643 29.9013C38.9549 29.7028 39.2791 29.9952 39.386 30.2924C39.5118 30.6416 39.4251 32.6457 39.4251 32.0523C39.4251 31.539 39.076 29.8035 39.8749 29.8035C40.7825 29.8035 40.4811 30.5428 40.4811 31.3092C40.4811 31.8891 40.3051 33.4731 40.3051 32.0132C40.3051 31.3792 40.3874 30.7862 40.4908 30.1653C40.5946 29.5427 40.8789 30.492 40.9113 30.5466C41.2764 31.1628 41.717 31.7366 42.065 32.3456C42.2914 32.7418 42.2409 30.625 42.2409 31.4656C42.2409 32.0839 42.7531 32.9713 43.4729 32.9713C43.7935 32.9713 43.6488 32.1338 43.6488 31.9252C43.6488 31.5388 43.9854 31.4893 44.0008 31.2114C44.0652 30.0521 44.1768 31.7404 44.1768 32.1012C44.1768 32.7753 44.0008 33.4701 44.0008 34.0957C44.0008 34.5163 44.1922 33.2297 44.4897 32.9322C45.0127 32.4092 45.3148 33.3649 44.8807 33.6361C44.4755 33.8894 44.1496 35.5743 44.0106 36.0609C43.8755 36.5338 43.6957 36.7759 43.4337 37.195C43.1528 37.6445 42.065 37.4561 42.065 36.843C42.065 36.0879 42.5581 34.9019 43.1991 34.5356C43.4045 34.4182 43.4956 34.0028 43.4729 34.5943C43.4591 34.953 43.2384 35.2096 43.1209 35.5329C43.0706 35.6713 42.989 36.2648 42.8471 36.3053C42.4605 36.4158 42.2513 35.8618 42.2409 35.572C42.2177 34.922 42.2409 34.2668 42.2409 33.6166C42.2409 33.2347 42.2409 31.9679 42.2409 33.0886C42.2409 34.0091 42.4353 35.8088 41.713 36.491C41.3315 36.8513 40.6859 34.5749 40.6571 34.0272C40.62 33.3228 41.3115 33.3094 41.537 33.9295C41.7804 34.5988 41.9041 35.8662 41.7032 36.5693C41.6209 36.8574 40.3969 36.3151 40.1291 36.3151C39.4781 36.3151 39.7537 34.6672 39.7771 34.1641C39.8006 33.6601 40.6928 32.1406 41.2828 32.8149C41.8693 33.4852 41.537 35.0415 41.537 35.8849C41.537 36.2147 41.7336 37.4482 41.4979 37.6839C41.0232 38.1586 40.4234 37.303 40.1291 37.1559C39.3104 36.7465 37.9269 34.5079 38.643 33.5873C39.5138 32.4677 38.9657 35.5062 38.8972 35.748C38.7698 36.1976 37.6653 38.3706 37.6653 37.1559C37.6653 36.1215 37.803 35.1956 37.9781 34.1837C38.0477 33.7816 38.125 33.391 37.9293 34.0175C37.7054 34.734 37.7279 36.6196 36.8733 36.9995C36.341 37.2361 36.4334 34.1367 36.4334 33.6753C36.4334 32.3122 36.8434 36.4267 36.5702 37.7621C36.3899 38.6439 35.5534 39.3218 35.5534 38.0554C35.5534 37.0451 35.5534 36.0348 35.5534 35.0245C35.5534 34.4844 35.5534 35.9406 35.5534 36.1391C35.5534 36.4678 35.3894 39.0194 34.5757 38.2509C33.7248 37.4473 34.0304 36.0618 34.1455 35.0832C34.285 33.898 34.8495 37.3998 34.8495 38.5931C34.8495 39.0542 34.5771 39.2901 34.3215 38.7789C33.8958 37.9275 33.7936 36.845 33.7936 35.9142C33.7936 35.6892 33.7585 34.5912 34.0478 35.3765C34.3405 36.171 34.1455 37.2731 34.1455 38.114C34.1455 38.3526 33.7329 40.6933 33.3634 39.9326C33.2144 39.6258 32.7438 36.9544 32.4834 37.0288C32.1356 37.1282 32.4865 39.0878 32.5714 39.3851C32.8311 40.2938 31.4413 40.9163 30.9387 41.7707C30.6883 42.1963 30.1051 42.6322 30.2836 43.2568C30.4742 43.9239 30.6748 43.611 30.2738 44.3127C30.2425 44.3675 29.7555 44.5012 30.0196 44.5767C30.2481 44.642 30.5646 44.5865 30.8018 44.5865C31.3565 44.5865 31.867 44.7624 32.3857 44.7624C32.821 44.7624 33.1912 45.0728 33.6958 44.9287C34.1646 44.7947 34.1973 44.2859 34.5953 44.0585C34.9745 43.8418 35.3341 43.5625 35.7294 43.3154C36.0152 43.1368 35.811 42.9164 36.1596 42.8168C36.3383 42.7658 36.5025 42.451 36.5702 42.2986C36.7681 41.8536 36.9613 41.4671 36.9613 40.9787C36.9613 40.1372 36.4334 39.4242 36.4334 38.6029C36.4334 38.3504 36.0609 37.7469 36.2867 37.8598C36.7564 38.0947 37.1784 39.6468 37.4893 40.1477C37.5436 40.2352 38.0173 41.9861 38.0173 40.8907C38.0173 40.328 38.0148 40.0416 37.7533 39.5708C37.571 39.2427 36.6831 37.5665 36.3454 37.5665C35.7955 37.5665 38.3247 42.6506 36.0814 42.6506C35.4108 42.6506 35.1451 42.8893 34.5757 42.9928C33.6296 43.1648 32.8514 41.7681 32.7474 40.9885C32.6096 39.9548 34.673 41.0374 35.2015 41.0667C36.3672 41.1315 33.7001 42.4952 33.4416 42.6115C32.9177 42.8472 32.4731 43.191 31.7795 42.9928C31.4674 42.9036 31.3456 42.8266 31.7599 42.8266C32.6526 42.8266 33.3892 42.7029 34.0478 42.0444C34.3561 41.7361 35.5272 41.0104 35.5534 40.5388C35.5763 40.1279 35.3832 38.672 34.7713 39.5219C34.1962 40.3207 33.6854 41.1376 33.4416 42.1129C33.3066 42.6528 32.8514 43.3545 32.3075 43.3545C31.876 43.3545 30.5983 43.1521 31.0169 43.2568C31.2962 43.3266 31.8224 43.8936 32.1315 44.0585C32.6376 44.3284 33.0327 44.5865 33.6176 44.5865C34.5016 44.5865 33.4218 42.8316 33.2656 42.4746C32.5549 40.8501 32.5549 39.0663 33.2852 37.4492C33.7666 36.3832 34.8704 35.1394 35.5925 34.2032C35.9682 33.7163 36.3177 33.4458 36.6191 32.8931C36.7695 32.6175 37.0145 32.4433 37.3133 32.4433" stroke="#9EF896" stroke-linecap="round"/>
<path d="M7.74867 7.27717C9.09075 7.12805 10.917 5.6428 12.2852 6.57322C12.6382 6.81323 12.662 8.06991 12.6763 8.46997C12.6938 8.96099 12.9877 9.51872 13.4878 9.74099C14.2121 10.0629 14.6148 10.6787 15.4823 10.7871C16.1399 10.8693 16.7578 10.9729 17.428 10.9729C19.0842 10.9729 20.3084 11.7812 21.6517 12.6448C23.2745 13.6881 25.174 13.4367 27.0193 13.4367C28.2456 13.4367 28.2035 13.6033 28.652 14.6686C29.0744 15.6717 29.2709 17.6939 27.997 18.0124C26.2465 18.45 23.8696 18.5309 22.3556 19.5963C21.9978 19.8481 21.5071 19.703 21.4757 20.3002C21.4466 20.8533 21.4068 21.4736 21.6125 21.9623C22.0424 22.9833 21.6053 24.8381 20.9477 25.5896C19.9942 26.6793 18.6969 27.1881 17.7799 28.2196C17.3527 28.7003 17.0554 29.3212 16.5089 29.7057C15.7732 30.2235 14.9937 30.5041 14.2504 30.9377C13.9012 31.1414 13.3803 31.0982 13.3803 31.6514C13.3803 32.1957 13.3131 32.7849 13.39 33.3233C13.552 34.4571 13.7767 35.4268 13.7322 36.6279C13.7118 37.1788 13.305 37.7227 13.1652 38.2509C13.0277 38.7701 12.9117 39.907 12.4221 40.1868C12.2273 40.2981 12.419 40.5418 12.2852 40.6756C12.2004 40.7605 11.8364 40.8338 11.7084 40.8907C11.0811 41.1695 10.7528 41.2427 10.0365 41.2427C9.16168 41.2427 9.00927 42.1226 8.10065 42.1226C7.63524 42.1226 7.28514 42.137 7.08383 41.6338C6.91645 41.2153 6.50775 41.0851 6.34078 40.7929C6.14922 40.4577 6.07918 39.9235 5.7346 39.825C5.53198 39.7671 5.0437 39.3199 4.89377 39.1699C4.53779 38.814 3.82179 38.2605 3.61298 37.8012C3.44606 37.4339 3.17301 36.7877 3.17301 36.403C3.17301 36.3247 2.77368 35.4639 2.72326 35.4351C2.20888 35.1412 1.8822 34.0072 1.62823 33.4992C0.688995 31.6208 0.70919 29.9331 0.70919 27.8286C0.70919 26.7502 0.533203 25.7596 0.533203 24.6999C0.533203 23.6091 1.22653 22.886 1.42292 21.8059C1.48336 21.4735 1.99794 20.4911 2.21486 20.2122C2.67887 19.6156 3.29995 19.5865 3.91607 19.3812C5.10888 18.9836 6.69275 18.8171 6.69275 17.3964C6.69275 16.927 6.34078 16.6757 6.34078 16.1743C6.34078 15.729 6.296 14.9752 6.0768 14.5806C5.88706 14.2391 5.87789 13.4719 5.82259 13.0847C5.75161 12.5879 5.63683 12.1829 5.63683 11.6768C5.63683 11.3102 5.67149 9.16541 6.08657 9.04682C6.82614 8.83551 7.74867 8.8142 7.74867 7.80513" stroke="#9EF896" stroke-linecap="round"/>
<path d="M11.0918 7.80513C9.68529 7.80513 11.0127 6.33364 10.9158 7.98112C10.8967 8.30591 9.93399 8.14321 9.68391 8.1571C9.22487 8.18261 8.70933 8.80364 8.44223 9.11526C7.54905 10.1573 6.51615 10.5769 6.51615 12.0288C6.51615 13.0411 7.74806 13.7896 7.74806 14.8446C7.74806 15.6121 7.71692 16.2917 7.58185 17.0347C7.42978 17.871 7.48749 17.9837 7.2592 16.9565C7.0315 15.9318 7.46226 14.5652 6.7899 13.7007C6.38641 13.1819 6.69213 11.4549 6.69213 10.7969C6.69213 10.4127 6.57127 9.81227 6.82901 9.52589C7.10844 9.21542 7.26083 8.61057 7.65028 8.4993C8.03332 8.38986 8.28592 7.80513 8.71598 7.80513C9.21909 7.80513 9.47409 7.45316 9.94789 7.45316C10.8973 7.45316 11.9717 7.17307 11.9717 8.33309C11.9717 9.03795 12.0056 9.24687 12.4997 9.74099C12.8107 10.052 13.7191 10.7308 12.8615 10.4449C12.2082 10.2272 10.7973 8.35707 10.251 9.38901C9.98526 9.89093 9.62093 10.0756 9.15595 10.3081C8.89615 10.438 8.0542 11.0189 7.92404 11.2467C7.66955 11.692 7.3383 12.0324 7.05388 12.459C6.89479 12.6977 7.36775 11.9756 7.56229 11.7648C7.7751 11.5343 8.27352 11.1456 8.4129 10.8947C8.59028 10.5754 10.3134 8.67744 10.3781 8.9686C10.5647 9.8082 10.2741 10.4159 9.95767 11.1391C9.62237 11.9055 8.99899 11.6882 8.452 12.2048C8.27089 12.3759 7.0863 13.0487 7.43519 13.3976C7.83368 13.7961 8.74849 12.4485 8.97996 12.2048C9.40905 11.7531 11.8032 9.11858 11.0136 11.1489C10.4401 12.6236 8.96871 13.2105 7.92404 14.3167C7.24304 15.0377 8.45209 14.6972 8.76487 14.4926C9.38951 14.0842 9.5686 13.5425 10.1141 13.075C10.347 12.8754 10.1529 12.6482 10.4759 12.4688C10.697 12.3459 10.8214 12.1387 11.0136 12.0288C11.5339 11.7315 11.9939 11.3627 12.4997 11.1098C13.7353 10.492 10.9472 13.4968 9.78168 14.2384C9.42978 14.4624 8.43074 15.4644 8.27602 15.8125C8.15252 16.0904 8.00025 16.3491 7.83605 16.6045C7.63524 16.9168 7.17339 17.2066 7.57207 16.9956C8.18643 16.6703 8.58239 16.3195 9.11684 15.7637C9.60597 15.255 9.88261 14.5792 10.4856 14.1407C11.3845 13.4869 12.1287 11.7991 13.4187 11.8528C13.8135 11.8693 12.8709 12.7439 12.6366 12.9088C11.9179 13.4145 11.3777 13.8265 11.0136 14.6588C10.4393 15.9716 9.02795 16.8861 8.02181 17.8364C7.26475 18.5514 6.45075 19.191 5.7242 19.7722C5.36504 20.0596 5.04827 20.4349 4.66828 20.7304C4.27891 21.0332 3.76813 20.6626 3.38749 21.0433C3.1123 21.3185 3.0088 21.5922 2.78131 21.845C2.53043 22.1237 2.13344 22.7851 1.86227 22.94C1.67869 23.0449 1.70872 23.7559 1.50051 24.0057C1.24537 24.3119 1.06055 25.3509 1.06055 25.7558C1.06055 26.8447 1.5246 27.6241 1.75472 28.6596C1.83256 29.0099 1.58419 31.3258 2.0187 31.2016C2.45165 31.0779 2.44431 29.4681 2.55644 29.1093C2.7414 28.5174 2.59284 27.9027 2.85953 27.3397C3.69895 25.5676 4.51218 23.6628 5.27446 21.8841C5.52667 21.2956 5.83486 20.5602 6.24239 20.0362C6.41529 19.8139 6.34016 19.4414 6.34016 19.1758C6.34016 18.8091 5.74001 19.6496 5.5971 19.9873C5.29452 20.7025 4.86675 21.4705 4.54118 22.1579C4.1759 22.929 3.87694 23.842 3.35816 24.5337C2.94028 25.0908 2.66619 25.9093 2.38045 26.538C1.91428 27.5636 1.78893 26.8968 2.07736 26.1469C2.48832 25.0784 2.43093 24.0687 2.90841 23.0182C3.24127 22.2859 2.77436 20.5514 4.05233 20.4762C4.58325 20.445 4.26979 19.5715 4.22831 20.6913C4.20497 21.3217 3.82519 22.1752 3.56347 22.764C3.0844 23.8419 4.14623 22.4273 4.36519 22.1383C5.144 21.1103 5.88426 20.2005 6.7899 19.2345C7.9938 17.9504 9.42521 16.9117 10.7203 15.7343C11.6109 14.9247 12.392 13.8838 13.3405 13.163C13.8108 12.8056 14.0122 12.3808 14.6116 12.3808C15.0224 12.3808 15.513 11.9506 15.9217 11.7648C16.5895 11.4613 16.4344 12.0721 16.9874 12.195C17.4026 12.2873 18.0788 12.3583 18.4833 12.3808C18.9629 12.4074 19.7423 12.4025 20.1063 12.6937C20.2115 12.7778 20.6794 12.6465 20.556 12.9088C20.4233 13.1907 20.1009 13.4367 19.7934 13.4367C17.2669 13.4367 14.7993 14.6647 12.6366 15.9005C11.4508 16.5781 10.483 17.6525 9.6448 18.7163C9.01806 19.5118 7.98903 19.9346 7.39608 20.75C6.85309 21.4966 5.90633 21.9762 5.28424 22.676C5.13186 22.8475 4.20552 23.7608 4.67806 23.0182C5.16662 22.2505 5.48607 21.5667 5.99796 20.7988C7.45145 18.6186 8.74917 16.502 10.4856 14.5317C10.6544 14.3403 12.2695 12.6548 11.9326 13.7496C11.7883 14.2186 11.2079 15.3893 10.7301 15.5486C10.0688 15.769 9.32309 16.5429 8.88219 17.064C8.71449 17.2622 7.17616 19.6643 8.06092 19.3812C8.87021 19.1222 8.83528 18.2861 9.23417 17.6995C9.70388 17.0088 10.2777 16.432 10.994 15.9885C11.8996 15.4279 12.5667 14.7794 13.5556 14.3949C14.3444 14.0881 14.964 13.5377 15.6675 13.1238C16.4376 12.6708 15.7851 12.5385 15.5306 12.9088C15.1978 13.3929 14.3379 13.818 15.4133 13.6225C16.073 13.5025 16.7258 13.6426 17.3393 13.7789C18.0289 13.9322 18.7021 13.7515 19.3632 14.1016C20.2418 14.5667 20.2289 15.5277 21.0351 16.1547C21.7908 16.7425 21.4202 17.9604 21.475 18.8923C21.499 19.2992 23.5921 18.0124 24.0269 18.0124C24.616 18.0124 25.0621 17.9681 25.6107 17.8462C26.4902 17.6507 26.1168 17.6877 26.4418 16.9565C26.7161 16.3392 27.0752 16.5986 27.1066 17.1324C27.1213 17.3814 27.4517 17.3192 27.6346 17.3084C27.9058 17.2925 27.8106 16.8853 27.8106 16.6925C27.8106 16.323 27.8618 15.6675 27.3706 15.5583C27.0854 15.495 27.1974 15.2602 27.0089 15.2064C26.7404 15.1297 26.5898 15.2407 26.3636 15.0597C26.0446 14.8045 25.576 14.8446 25.1708 14.8446C24.9361 14.8446 24.7015 14.8446 24.4668 14.8446C24.0874 14.8446 24.1046 14.5777 23.8411 14.5024C23.002 14.2627 22.2551 13.6127 21.2991 13.6127C19.9704 13.6127 21.7341 15.2891 22.1008 15.7245C22.9593 16.744 21.8262 18.2061 23.6749 17.2107C24.3811 16.8304 25.025 16.6076 25.7867 16.4383C25.9912 16.3928 26.1809 16.2604 26.0312 15.9983C25.8957 15.7612 24.9916 15.9005 24.7406 15.9005C24.3583 15.9005 23.9687 15.9217 23.5869 15.9005C23.3064 15.885 23.5097 15.5606 23.1958 15.5486C22.9108 15.5376 21.5855 15.3791 21.4848 15.8321C21.336 16.5017 22.2112 16.4285 22.619 16.4285C22.8819 16.4285 22.9448 16.608 22.8732 16.8587C22.8298 17.0105 22.2921 16.9919 22.1399 17.0933C20.8535 17.9509 18.989 18.1108 17.5642 18.7163C16.539 19.1521 15.5191 19.6058 14.5138 20.0851C13.414 20.6094 12.1621 20.7678 11.0136 21.1801C10.1443 21.4922 9.22345 21.704 8.31512 21.8743C7.83802 21.9638 7.46034 22.2361 6.96589 22.2361C6.00874 22.2361 8.73289 21.357 9.11684 21.141C12.3007 19.3501 15.4447 17.5805 18.7375 15.9983C19.8554 15.4611 23.0937 13.6384 22.0617 14.3264C21.2124 14.8926 20.23 15.1435 19.3534 15.6366C18.2525 16.2558 16.9811 16.6806 15.8239 17.2302C13.6387 18.2682 11.727 19.6578 9.68391 20.9064C9.56229 20.9807 8.856 21.4507 9.42971 21.3464C10.3531 21.1785 11.4255 20.4371 12.2259 19.9873C14.1027 18.9328 16.2211 17.584 18.3073 16.9956C18.8068 16.8547 19.269 16.6134 19.7543 16.4285C19.8967 16.3742 20.8855 16.0885 20.2431 16.2721C19.2098 16.5673 18.0942 16.8627 17.0754 17.3084C16.8564 17.4042 14.5895 18.7609 15.5306 18.5012C15.8151 18.4228 18.6805 17.7952 18.581 17.3475C18.5188 17.0676 16.6796 17.5987 16.4692 17.6604C15.5144 17.9403 14.4711 17.8364 13.4872 17.8364C13.0259 17.8364 11.0429 17.4886 12.2651 16.7902C13.0305 16.3528 14.3895 16.3215 15.2471 16.0765C16.6656 15.6712 18.2287 15.2379 19.7152 15.1966C20.1562 15.1843 18.2866 15.3731 17.8771 15.5486C16.2233 16.2573 14.5313 16.6603 12.9495 17.5822C11.4344 18.4651 10.2459 19.7297 8.84309 20.75C8.40703 21.0671 8.66488 21.0885 8.97996 20.8184C10.6403 19.3952 11.7632 18.1414 13.976 17.5724C15.019 17.3042 17.7056 16.1051 18.6984 16.9173C18.9754 17.144 19.4995 17.327 19.6761 17.6604C19.8105 17.9143 19.519 18.8704 19.8912 18.8923C20.7857 18.9449 20.4883 17.725 20.1063 17.2107C19.5646 16.4814 18.1722 16.2121 17.4273 15.6268C17.2721 15.5048 15.8584 14.46 16.4594 14.3264C16.9935 14.2077 17.9348 14.9972 17.5251 15.0206C15.9936 15.1081 14.7437 15.6533 13.4187 16.3894C12.9149 16.6693 11.3653 16.8137 11.6295 17.7386C11.8865 18.6378 20.0672 14.7649 20.0672 16.7805C20.0672 17.3052 20.038 17.8403 20.0672 18.3644C20.0887 18.752 20.4936 19.2851 20.6049 19.6745C20.8572 20.5576 20.7711 21.6109 20.7711 22.588C20.7711 23.6981 20.9328 24.3818 20.1649 25.1496C19.7482 25.5663 19.1647 25.7978 18.757 26.2056C18.3916 26.571 17.9692 27.2195 17.5251 27.4766C16.43 28.1106 14.9525 29.076 14.1814 30.0675C13.3741 31.1054 8.83884 30.0158 8.1978 29.5884C6.67832 28.5754 6.69213 27.1158 6.69213 25.4821C6.69213 24.1319 7.26801 22.8382 8.26624 21.9232C8.91207 21.3312 10.5703 20.7822 11.4438 20.8282C12.4537 20.8813 11.2318 22.2031 10.994 22.3729C10.5693 22.6763 9.98561 22.7195 9.50793 22.94C8.78497 23.2737 8.18404 23.7394 7.48407 24.0742C6.24685 24.6659 5.02173 25.2058 3.72968 25.658C3.1422 25.8637 1.97452 26.1359 3.2115 26.1078C5.07483 26.0654 6.84856 25.5554 8.76487 25.7949C9.19648 25.8489 11.9723 26.2929 10.8278 25.57C10.3608 25.2751 9.96885 24.9451 9.59592 24.5435C9.29078 24.2148 8.60431 24.1074 8.1978 23.9177C7.50344 23.5937 6.59916 23.8982 5.90019 24.0057C5.74881 24.029 5.0098 24.4434 5.47978 24.0742C5.92296 23.7259 6.19852 23.2576 6.59436 22.8618C6.854 22.6022 7.08972 22.3501 7.45474 22.2458C7.7998 22.1473 6.95659 22.7701 6.77035 23.0769C6.38774 23.7071 7.18701 24.8702 7.35697 25.4821C7.57827 26.2787 8.05393 26.9168 8.452 27.6135C8.7768 28.1818 9.44734 28.3027 10.0261 28.4836C10.1275 28.5153 11.4856 28.6275 11.0527 29.0605C10.378 29.7352 8.10003 28.3579 8.10003 27.5157C8.10003 26.8782 8.08726 25.3963 8.63777 24.9834C9.30058 24.4863 9.78818 25.7289 10.0359 26.1469C10.3534 26.6827 10.2474 27.6156 10.2119 28.2196C10.1826 28.7165 8.71737 28.1833 8.54977 27.8481C8.15005 27.0487 8.97703 25.1562 10.0457 25.4234C11.1885 25.7091 10.5917 27.4289 10.5638 28.1805C10.5452 28.6839 12.0821 28.3244 12.5975 28.6107C12.7152 28.6761 13.5369 29.392 13.3405 29.5884C12.7253 30.2036 10.7746 28.7441 11.5416 27.8677C12.344 26.9506 14.3171 26.2597 15.4426 26.1273C16.4583 26.0078 16.7286 26.099 16.0194 26.7335C15.5721 27.1338 14.9229 27.1473 14.4747 27.5548C14.2586 27.7512 13.2652 29.0509 14.1618 28.5618C15.5646 27.7967 16.3624 26.0035 17.4273 24.8759C17.8266 24.4532 17.9879 23.6516 18.4833 23.3311C19.0769 22.947 19.1889 23.6057 18.9232 24.0839C18.7489 24.3977 17.8706 24.894 17.5153 25.0519C17.4171 25.0955 16.0747 26.0906 16.7234 25.4038C17.1316 24.9716 17.7826 24.8253 18.3073 24.563C18.553 24.4401 19.3632 23.6669 19.3632 23.38C19.3632 22.7901 19.3632 22.2002 19.3632 21.6103C19.3632 20.8275 19.7152 20.6986 19.7152 21.6103C19.7152 22.7321 20.0209 24.0422 19.1872 24.8759C18.1615 25.9016 17.0644 27.8677 15.3155 27.8677C14.1752 27.8677 15.4627 25.8308 15.9217 25.4136C16.8141 24.6023 17.2484 23.4792 17.9553 22.5294C18.5503 21.7299 18.9008 20.7143 19.5392 19.9482C19.817 19.6149 19.0997 19.8124 18.9721 19.8896C18.3408 20.2713 17.8868 20.9319 17.5056 21.5419C16.2906 23.4859 14.8518 25.0199 13.3112 26.6944C11.438 28.7305 13.2346 25.5466 13.7316 24.739C14.8964 22.8462 16.888 21.3618 18.4833 19.8505C19.3584 19.0214 18.4568 19.3473 17.7891 19.9482C15.4154 22.0846 13.0604 24.2614 10.7398 26.4598C10.2672 26.9075 10.4968 26.2354 10.603 25.9905C11.0659 24.9222 11.6512 23.8567 12.2846 22.8814C13.1761 21.5087 14.5178 20.2197 15.9412 19.4203C16.2489 19.2475 17.073 18.5318 16.6256 19.2638C15.2157 21.571 12.4929 23.4674 10.4172 25.1203C10.3504 25.1735 8.6193 26.312 9.36127 25.57C10.2633 24.668 11.331 23.8624 12.3628 23.116C13.1974 22.5123 14.0636 21.7896 15.0613 21.493C15.8156 21.2688 14.9529 21.4805 14.6702 21.5712C13.0256 22.0991 11.334 22.3075 9.66436 22.7249C8.88068 22.9208 8.64298 22.9746 9.15595 23.4875C10.3047 24.6362 11.7886 25.6968 13.4774 25.922C14.8127 26.1001 15.8049 25.1537 15.6284 23.7417C15.5077 22.7764 15.0055 21.8431 14.6116 20.9651C14.4128 20.522 14.222 20.0768 13.9467 19.6745C13.8691 19.561 13.5941 19.3225 13.7316 19.3225C13.9769 19.3225 14.4601 20.2639 14.7484 20.398C15.3269 20.667 16.4078 20.7329 16.7918 21.2877C17.8578 22.8275 14.2012 25.1378 13.145 25.5603C11.6667 26.1516 11.3368 24.3588 11.2678 23.116C11.2547 22.8802 10.9841 21.6038 10.7398 22.4316C10.4115 23.5444 10.1933 24.8536 10.075 26.01C10.0116 26.6295 10.0723 27.249 10.0359 27.8677C10.0086 28.3324 9.69946 27.0444 9.69369 26.9291C9.67359 26.5271 9.3289 22.0796 10.1141 22.0796C10.5175 22.0796 10.3879 24.6484 10.3879 25.0519" stroke="#9EF896" stroke-linecap="round"/>
<path d="M13.2041 30.3315C13.0364 30.3524 12.6762 31.6894 12.6762 31.9154C12.6762 32.5313 12.6762 33.1473 12.6762 33.7632C12.6762 35.0454 13.0281 36.1669 13.0281 37.4492C13.0281 38.5647 13.0778 39.8348 11.6202 39.8348C10.5969 39.8348 9.95276 41.2427 9.15642 41.2427C8.59867 41.2427 8.08781 41.39 7.57254 41.4187C6.73929 41.4649 7.01591 40.3398 6.60461 40.0108C5.65216 39.2488 4.978 38.4917 4.13101 37.6447C3.77259 37.2863 3.1823 36.9032 2.99688 36.3932C2.72274 35.6394 2.79007 35.0019 2.42981 34.2814C2.11135 33.6445 2.12735 32.9688 1.85296 32.3651C1.72764 32.0894 1.76497 30.568 1.76497 31.5243C1.76497 32.3083 1.77139 32.6693 2.15605 33.3232C2.37624 33.6976 2.7431 34.7174 3.07509 34.9071C4.05088 35.4647 4.84252 36.464 5.28471 37.4589C5.44532 37.8203 6.25493 38.2589 6.33085 38.5246C6.39777 38.7588 6.80406 39.2701 7.00547 39.5219C7.10663 39.6484 7.21807 41.1138 7.74853 40.4507C8.10122 40.0099 8.5666 39.6977 8.98044 39.3068C9.41074 38.9004 10.0105 38.9241 10.5643 38.9548C11.534 39.0087 10.4286 40.0862 10.0266 40.1867C9.89618 40.2193 8.06779 40.9188 8.1005 40.3627C8.12879 39.8818 9.98405 38.898 10.4763 38.7886C11.349 38.5947 12.8626 38.1451 12.3144 36.7746C12.2302 36.564 11.8013 37.5971 11.7962 37.6056C11.6087 37.9221 11.28 38.4143 11.2683 38.7788C11.2492 39.3706 11.2683 38.388 11.2683 38.2411C11.2683 37.6838 11.2683 37.1265 11.2683 36.5692C11.2683 34.5924 11.4443 32.6584 11.4443 30.6834C11.4443 29.2169 11.3581 33.6191 11.4443 35.0831C11.4658 35.4498 12.6482 35.9104 12.6762 35.4351C12.7354 34.4274 12.6204 33.4566 12.51 32.4629C12.2105 29.7677 10.1201 34.3792 11.5322 34.3792C12.6442 34.3792 12.1709 32.9612 11.9722 33.6068C11.711 34.4558 11.5663 35.436 11.2292 36.2368C10.8238 37.1996 9.48499 37.6102 8.62846 38.114C8.24133 38.3417 7.81742 38.9055 7.49432 39.2286C7.404 39.3189 7.05319 39.9088 6.9077 39.7957C6.5844 39.5442 7.0732 39.0944 7.22057 38.9548C7.8001 38.4058 8.5897 37.7507 9.25419 37.371C10.4542 36.6852 8.69481 37.1369 8.17872 37.2927C7.65312 37.4514 5.57976 37.0351 5.32382 37.5469C5.12393 37.9467 6.10156 37.4999 6.17442 37.4589C6.80195 37.106 7.41014 36.6737 8.08095 36.4128C8.3681 36.3011 9.91457 36.0955 10.1732 36.3541C10.4589 36.6398 9.15642 38.0782 9.15642 38.5833C9.15642 38.6479 9.34681 38.1387 9.5084 37.9771C9.6938 37.7917 9.95546 37.644 10.1146 37.4394C10.7409 36.6342 8.56567 35.8441 8.06139 35.6502C7.1629 35.3046 8.80806 33.8244 9.06843 33.3037C9.54696 32.3466 10.0071 31.5303 10.3492 30.5466C10.7071 29.5178 9.66006 32.6309 9.54751 33.7143C9.51213 34.0549 9.41632 37.1463 10.1244 35.4155C10.4484 34.6234 10.5453 33.5344 10.5643 32.678C10.5871 31.6509 10.3407 31.9858 10.1732 32.7562C10.0046 33.5319 9.86037 34.1727 9.86037 34.9756C9.86037 35.0768 9.66514 36.0322 9.5084 35.6795C9.30876 35.2303 8.99951 34.421 8.41337 34.3792C7.70328 34.3285 7.82962 35.3245 7.57254 35.748C6.98657 36.7131 5.98485 36.2443 5.1185 35.8653C3.69584 35.2429 3.44571 35.0324 2.95777 33.4601C2.88185 33.2155 1.93223 30.703 2.7329 30.703C2.87656 30.703 3.17752 31.2379 3.25108 31.3483C3.72012 32.0518 4.341 32.7196 5.08917 33.1277C5.56658 33.3881 6.05113 33.8159 6.4384 34.2032C6.88005 34.6448 7.10963 34.7422 6.34063 34.5943C5.63431 34.4584 4.9728 34.117 4.40477 33.6752C4.11681 33.4513 3.39574 33.1808 3.88659 33.7534C4.12769 34.0347 6.83515 36.2654 6.86859 35.396C6.90014 34.5758 6.48411 33.9359 6.07665 33.245C5.29831 31.9252 4.48198 30.6691 4.01369 29.1973C3.83004 28.6201 3.52484 26.8415 3.52484 27.4472C3.52484 28.7464 3.71795 29.8334 4.32656 31.0159C4.99264 32.31 5.75798 33.4275 6.6535 34.5552C7.31626 35.3898 7.04955 33.5635 7.00547 33.1864C6.87344 32.0568 6.24364 30.8528 5.64646 29.9111C5.31426 29.3872 5.08226 28.9113 4.97184 28.2978C4.92091 28.0149 4.93273 27.8687 4.93273 28.249C4.93273 29.6596 5.49562 30.7002 6.34063 31.8371C6.41385 31.9356 7.44055 33.2243 7.72897 32.8637C8.46457 31.9442 6.33238 28.6416 5.63668 27.9459C4.51522 26.8244 7.0052 30.8965 8.16894 31.974C8.58653 32.3607 9.13256 32.7953 9.72349 32.7953C10.4599 32.7953 10.3883 32.0745 10.3883 31.4265C10.3883 31.0578 9.79691 28.3318 9.2933 29.8426C8.82361 31.2517 8.80445 35.7569 8.80445 34.2716C8.80445 33.1668 8.80445 32.062 8.80445 30.9572C8.80445 30.2888 9.01529 28.5458 8.49158 30.0968C7.97845 31.6165 7.57818 33.9897 6.50684 35.2396C5.91331 35.932 6.6163 33.3967 6.6535 33.245C6.91697 32.1709 6.87026 30.9435 7.30856 29.9208C7.39513 29.7188 7.76182 29.0818 7.74853 29.6666C7.72366 30.7606 7.13731 31.4306 6.77082 32.3651C6.33848 33.4676 4.71802 34.1296 4.31678 32.6584C4.14133 32.0151 2.99941 28.4726 4.0528 27.9459C4.65423 27.6452 5.98866 27.7307 5.98866 28.5716C5.98866 29.6712 4.84939 30.4644 3.77904 30.3217C2.37639 30.1347 3.25824 26.3389 4.44388 25.9709C5.91633 25.5139 7.32311 27.1974 6.58506 28.5032C6.22369 29.1425 5.02749 31.0159 4.14079 31.0159C3.32719 31.0159 4.31086 27.259 5.59757 27.1637C6.76048 27.0776 5.219 30.4367 4.93273 30.9376C4.23422 32.16 4.93273 26.714 4.93273 26.714C4.93273 26.714 4.58644 28.0984 4.5221 28.8062C4.31915 31.0387 4.33705 34.4336 6.15487 36.0999C8.34698 38.1094 9.88369 28.1936 10.3101 26.8899C10.5393 26.1892 11.2851 24.1083 11.0825 24.8172C10.7574 25.955 10.5643 27.0092 10.5643 28.2001C10.5643 28.8194 10.3177 30.0338 10.6034 30.6052C10.8795 31.1573 12.1877 28.8348 12.2851 28.6498C12.6516 27.9533 15.2828 25.5372 14.7489 27.6134C14.4773 28.6698 13.9184 29.6097 13.1161 30.2337C12.6362 30.607 13.3623 29.7209 13.4583 29.6275C14.0226 29.0789 14.6528 28.5808 15.2182 28.0436C15.6744 27.6103 16.4289 27.5208 16.8021 26.9779C17.095 26.5519 17.2344 26.1044 17.506 25.6776C17.8626 25.1172 18.2064 24.1527 18.122 23.4778C17.8987 21.6917 14.0552 24.2133 13.4192 24.5239C12.3455 25.0483 12.019 27.2556 10.6425 27.5059C9.54778 27.7049 8.23004 27.5157 7.12279 27.5157C6.31132 27.5157 4.73428 27.7595 5.89089 26.5575C6.77331 25.6405 7.74181 24.7329 8.72623 23.9275C9.9739 22.9067 11.6462 22.23 12.989 21.2975C13.2949 21.0851 14.5195 20.1742 13.4192 20.1242C12.4721 20.0812 11.5124 20.1242 10.5643 20.1242C9.96912 20.1242 8.82179 20.3547 8.29604 20.0167C7.73339 19.655 8.41269 18.1486 8.63824 17.7679C9.05163 17.0704 9.82187 16.9353 10.3883 16.4285C11.0181 15.865 10.6139 17.7301 10.6034 17.9146C10.5188 19.4096 11.7584 25.0045 13.9961 22.021C14.6013 21.214 15.2709 20.0653 15.316 19.0292C15.339 18.4993 15.3614 17.7201 15.6679 17.2693C16.4584 16.1069 17.4489 15.3683 18.8259 14.9228C20.0061 14.541 21.08 14.1682 22.3457 14.3264C22.9153 14.3976 23.9584 14.4934 24.4673 14.7077C25.0304 14.9448 25.7026 14.8446 26.3152 14.8446C27.0837 14.8446 27.1189 14.9137 27.6351 15.3726C28.1733 15.851 28.0739 15.987 28.691 15.5877C29.1627 15.2824 29.6184 14.3166 28.779 14.3166C28.4007 14.3166 27.7779 14.7889 27.4591 14.6295C27.092 14.446 27.1488 14.1407 26.6769 14.1407C26.4119 14.1407 25.9432 14.1587 26.061 14.5709C26.0953 14.6912 27.332 14.1407 26.8333 14.1407C25.986 14.1407 25.1387 14.1407 24.2913 14.1407C23.1818 14.1407 22.3549 14.0274 21.3093 13.7007C20.4039 13.4178 19.8534 13.0847 18.8748 13.0847C17.5281 13.0847 16.4127 12.2689 15.316 11.5986C14.6727 11.2055 13.898 11.2411 13.341 10.836C12.6521 10.335 12.2831 11.1578 12.8815 11.6964C13.5387 12.2879 14.3663 12.8284 15.14 13.2607C15.6598 13.5512 15.492 14.1395 15.492 14.6686" stroke="#9EF896" stroke-linecap="round"/>
</svg>
